name D:\school\WTK\thesis\model\3dpredictsim\Results\batch_windlass\Fal_s1_tmt_bCst_d05_k1000_WL30_ig24.mot
datacolumns 128
datarows 4
range 0.00000000 0.03350605
endheader
time	pelvis_tilt	pelvis_list	pelvis_rotation	pelvis_tx	pelvis_ty	pelvis_tz	hip_flexion_l	hip_adduction_l	hip_rotation_l	hip_flexion_r	hip_adduction_r	hip_rotation_r	knee_angle_l	knee_angle_r	ankle_angle_l	ankle_angle_r	subtalar_angle_l	subtalar_angle_r	tmt_angle_l	tmt_angle_r	mtp_angle_l	mtp_angle_r	lumbar_extension	lumbar_bending	lumbar_rotation	arm_flex_l	arm_add_l	arm_rot_l	arm_flex_r	arm_add_r	arm_rot_r	elbow_flex_l	elbow_flex_r	pro_sup_l	pro_sup_r	glut_med1_l/activation	glut_med2_l/activation	glut_med3_l/activation	glut_min1_l/activation	glut_min2_l/activation	glut_min3_l/activation	semimem_l/activation	semiten_l/activation	bifemlh_l/activation	bifemsh_l/activation	sar_l/activation	add_long_l/activation	add_brev_l/activation	add_mag1_l/activation	add_mag2_l/activation	add_mag3_l/activation	tfl_l/activation	pect_l/activation	grac_l/activation	glut_max1_l/activation	glut_max2_l/activation	glut_max3_l/activation	iliacus_l/activation	psoas_l/activation	quad_fem_l/activation	gem_l/activation	peri_l/activation	rect_fem_l/activation	vas_med_l/activation	vas_int_l/activation	vas_lat_l/activation	med_gas_l/activation	lat_gas_l/activation	soleus_l/activation	tib_post_l/activation	flex_dig_l/activation	flex_hal_l/activation	tib_ant_l/activation	per_brev_l/activation	per_long_l/activation	per_tert_l/activation	ext_dig_l/activation	ext_hal_l/activation	ercspn_l/activation	intobl_l/activation	extobl_l/activation	glut_med1_r/activation	glut_med2_r/activation	glut_med3_r/activation	glut_min1_r/activation	glut_min2_r/activation	glut_min3_r/activation	semimem_r/activation	semiten_r/activation	bifemlh_r/activation	bifemsh_r/activation	sar_r/activation	add_long_r/activation	add_brev_r/activation	add_mag1_r/activation	add_mag2_r/activation	add_mag3_r/activation	tfl_r/activation	pect_r/activation	grac_r/activation	glut_max1_r/activation	glut_max2_r/activation	glut_max3_r/activation	iliacus_r/activation	psoas_r/activation	quad_fem_r/activation	gem_r/activation	peri_r/activation	rect_fem_r/activation	vas_med_r/activation	vas_int_r/activation	vas_lat_r/activation	med_gas_r/activation	lat_gas_r/activation	soleus_r/activation	tib_post_r/activation	flex_dig_r/activation	flex_hal_r/activation	tib_ant_r/activation	per_brev_r/activation	per_long_r/activation	per_tert_r/activation	ext_dig_r/activation	ext_hal_r/activation	ercspn_r/activation	intobl_r/activation	extobl_r/activation	
          0.00000000	         -2.93012063	         -1.37384479	          5.23330275	          0.00000000	          0.90773390	         -0.00213544	        -17.73739135	         -0.58010547	          6.21664747	         30.34166079	          2.03585369	         -3.33040950	         -5.96529456	        -14.40133570	          2.26136654	          5.35360043	          9.42392854	         -0.81652120	         -7.41038944	         -0.08238644	         25.34213089	          0.30030690	         -1.56552327	         -0.67301568	         -1.91387291	          4.56004680	        -13.45376761	         14.81715637	         -5.19450514	        -13.45631208	          8.19603506	         32.31282155	         17.01723489	         86.51662706	         86.51662706	          0.33564210	          0.09898424	          0.06993635	          0.33600325	          0.20692110	          0.10282812	          0.05000422	          0.05000123	          0.05000093	          0.06699366	          0.09874921	          0.05000681	          0.05000088	          0.05000110	          0.05000311	          0.05000298	          0.28146335	          0.05000576	          0.05000299	          0.05003519	          0.05001241	          0.05000563	          0.35920390	          0.57237517	          0.05000142	          0.05000611	          0.05929400	          0.22955414	          0.05000248	          0.05000254	          0.05000236	          0.30163669	          0.39354183	          0.27596236	          0.26736095	          0.25436210	          0.34522475	          0.05000011	          0.08476250	          0.17093592	          0.05000074	          0.05000018	          0.05000059	          0.05000005	          0.05000011	          0.05000008	          0.07034381	          0.05000258	          0.05930692	          0.05000148	          0.05000178	          0.05001432	          0.06023769	          0.05930855	          0.11217542	          0.05000601	          0.05000573	          0.11325135	          0.16034805	          0.15871972	          0.14679870	          0.11034569	          0.05007983	          0.05014660	          0.05932892	          0.05930779	          0.09887369	          0.08683342	          0.05000080	          0.05008929	          0.22435072	          0.05000085	          0.05000815	          0.05000128	          0.06519421	          0.07281354	          0.05097748	          0.05000009	          0.05000019	          0.05000004	          0.05832372	          0.05010030	          0.05665107	          0.48829361	          0.27371083	          0.18966473	          0.07456569	          0.44890281	          0.15519866	          0.05931755	          0.12849342	          0.12899036	
          0.01116868	         -2.92864252	         -1.43718162	          5.51657548	          0.01680068	          0.90687136	         -0.00194122	        -17.69498679	         -0.86031579	          6.00604913	         29.76476488	          2.36642061	         -3.11810091	         -7.72111704	        -13.93190975	          1.49398192	          4.99004896	         10.27444253	         -1.26589584	         -8.01884347	         -0.08852834	         26.61777981	          0.34019140	         -1.37302692	         -0.47104399	         -1.98337463	          4.31095719	        -13.46660277	         15.23411591	         -6.11422483	        -13.45361867	          7.90218894	         33.44427368	         16.73640817	         86.51662706	         86.51662706	          0.29026301	          0.08345045	          0.05896116	          0.28327394	          0.17444862	          0.08669116	          0.05000187	          0.05000055	          0.05000039	          0.05648038	          0.08325323	          0.11216577	          0.12750699	          0.05002327	          0.05001401	          0.05000212	          0.23729297	          0.09640978	          0.05000587	          0.05000357	          0.05000230	          0.05000241	          0.30283451	          0.54031375	          0.05000056	          0.05000122	          0.05000050	          0.19353057	          0.09307430	          0.06163169	          0.05797655	          0.25430009	          0.33178237	          0.23265491	          0.23451744	          0.21444628	          0.29104979	          0.05000007	          0.07146078	          0.14411246	          0.05000042	          0.05000011	          0.05000042	          0.05000015	          0.05194737	          0.05107343	          0.05930626	          0.05930703	          0.05000044	          0.05930761	          0.05930751	          0.05008674	          0.05930714	          0.05000160	          0.11370553	          0.05000044	          0.05000164	          0.11709698	          0.27556240	          0.13381972	          0.15091132	          0.11684692	          0.05000034	          0.07047883	          0.05001970	          0.05000126	          0.13770811	          0.16381657	          0.05591060	          0.05000112	          0.23248444	          0.23268952	          0.14222655	          0.05987614	          0.16361491	          0.16185652	          0.14095031	          0.05076045	          0.05124719	          0.05617745	          0.05000006	          0.05000046	          0.05000040	          0.62956657	          0.27203913	          0.15990053	          0.37194810	          0.53233002	          0.25892587	          0.05000875	          0.10832865	          0.10874760	
          0.02233736	         -2.92234886	         -1.50501280	          5.77451618	          0.03392202	          0.90595368	         -0.00174571	        -17.56701697	         -1.14060789	          5.78321019	         29.07725802	          2.67639597	         -2.85142683	         -9.65123791	        -14.09021555	          0.60352118	          4.39689973	         11.10101120	         -1.73128652	         -8.54836392	         -0.13511349	         27.63194124	          0.41540299	         -1.15793604	         -0.25426350	         -2.04389727	          3.98773904	        -13.48437201	         15.59042364	         -7.06414385	        -13.45497245	          7.64944405	         34.56051159	         16.49374072	         86.51662706	         86.51662706	          0.24471153	          0.07035443	          0.05000336	          0.23881949	          0.14707211	          0.07308662	          0.05003511	          0.05000430	          0.05000995	          0.05000059	          0.07018889	          0.19451884	          0.25107031	          0.06972412	          0.05930988	          0.05937030	          0.20005429	          0.08128287	          0.05001663	          0.05008917	          0.05011479	          0.05928015	          0.25531013	          0.50210050	          0.05011169	          0.05910469	          0.05000140	          0.16315970	          0.11984135	          0.16503722	          0.16510181	          0.21439214	          0.27971496	          0.19614380	          0.19771423	          0.18079313	          0.24537502	          0.05000017	          0.06024645	          0.12202812	          0.05000037	          0.05000027	          0.05000072	          0.05359693	          0.05930892	          0.06805766	          0.05000012	          0.05000037	          0.11138963	          0.05000043	          0.05000045	          0.05000056	          0.05000062	          0.05000129	          0.09586159	          0.05000046	          0.05000144	          0.09872124	          0.23231966	          0.30852757	          0.22369205	          0.14124842	          0.05000277	          0.05942814	          0.08978146	          0.08628617	          0.12503810	          0.13810907	          0.05000050	          0.05000137	          0.36969222	          0.19617309	          0.11990673	          0.05930850	          0.20400033	          0.20481151	          0.17334613	          0.05000048	          0.05930476	          0.05000014	          0.05930745	          0.05930683	          0.05930766	          0.53076740	          0.28609069	          0.17774851	          0.31359297	          0.47057850	          0.21829221	          0.05000003	          0.09132839	          0.09168158	
          0.03350605	         -2.91260213	         -1.58100617	          6.00261848	          0.05124932	          0.90497309	         -0.00156322	        -17.36688311	         -1.42052395	          5.54831507	         28.23190057	          2.92876619	         -2.56830608	        -11.71240730	        -14.51103833	         -0.42298891	          4.02211032	         11.86750017	         -2.21933533	         -8.94596217	         -0.41827473	         28.24845029	          0.36325494	         -0.93040652	         -0.02053242	         -2.09259948	          3.60582094	        -13.50349923	         15.88460721	         -8.01423854	        -13.46536378	          7.46826494	         35.65961739	         16.26168350	         86.51662706	         86.51662706	          0.32661173	          0.05931359	          0.05000011	          0.31907962	          0.12399193	          0.06161709	          0.05000546	          0.05000054	          0.05000037	          0.05000142	          0.05931133	          0.16399480	          0.21167150	          0.05878284	          0.05000493	          0.05005382	          0.16866523	          0.07053373	          0.05000203	          0.05000185	          0.05000116	          0.05000089	          0.21524435	          0.47467067	          0.05000018	          0.05000070	          0.05000046	          0.13755693	          0.10103467	          0.13913788	          0.13919231	          0.18074705	          0.23581861	          0.16536246	          0.16668657	          0.15242114	          0.20686797	          0.07318046	          0.13755084	          0.15855106	          0.11724237	          0.12454503	          0.05001162	          0.06418619	          0.05000144	          0.05737725	          0.23181086	          0.24308128	          0.29382623	          0.33414297	          0.21671830	          0.17439963	          0.07014905	          0.06302106	          0.09178130	          0.08116593	          0.05930769	          0.08322877	          0.19586126	          0.26010983	          0.18858787	          0.11908729	          0.05000107	          0.05010341	          0.07569248	          0.18058593	          0.15500509	          0.11643561	          0.05000184	          0.05000126	          0.31167578	          0.16538757	          0.20597085	          0.05000116	          0.17198622	          0.17267012	          0.14614263	          0.05000454	          0.05000108	          0.05093252	          0.05000025	          0.05000043	          0.05000075	          0.62397053	          0.29061002	          0.15668155	          0.57847073	          0.56319428	          0.26124876	          0.05387296	          0.10327357	          0.07729378	
